<?xml version="1.0" encoding="iso-8859-1"?>
<!-- Generator: Adobe Illustrator 19.0.0, SVG Export Plug-In . SVG Version: 6.00 Build 0)  -->
<svg version="1.1" id="Capa_1" xmlns="http://www.w3.org/2000/svg" xmlns:xlink="http://www.w3.org/1999/xlink" x="0px" y="0px"
	 viewBox="0 0 512 512" style="enable-background:new 0 0 512 512;" xml:space="preserve">
<path style="fill:#E5E5E5;" d="M401,200v280c0,18.569-13.339,32-29.795,32h-230.41C124.339,512,111,498.569,111,480V200
	c0-31.137,26.679-58,59.589-58h29.795V40h111.233v102h29.794C374.321,142,401,168.863,401,200z"/>
<path style="fill:#C8C8C8;" d="M173.237,512h-32.443C124.339,512,111,498.569,111,480V200c0-31.137,26.679-58,59.589-58h29.795V40
	h32.443v82c0,11.046-8.893,20-19.863,20h-9.932c-32.91,0-59.589,26.863-59.589,58v280C143.443,498.569,156.782,512,173.237,512z"/>
<path style="fill:#7F787A;" d="M275.795,110h-39.589c-5.523,0-10-4.477-10-10V10c0-5.523,4.477-10,10-10h39.589
	c5.523,0,10,4.477,10,10v90C285.795,105.523,281.317,110,275.795,110z"/>
<path style="fill:#B4B4B4;" d="M317.038,78.281H194.962c-8.284,0-15-6.716-15-15V55c0-8.284,6.716-15,15-15h122.076
	c8.284,0,15,6.716,15,15v8.281C332.038,71.566,325.322,78.281,317.038,78.281z"/>
<path style="fill:#C8C8C8;" d="M317.141,78.281H226.64c-8.227,0-14.897-6.716-14.897-15V55c0-8.284,6.67-15,14.897-15h90.501
	c8.227,0,14.897,6.716,14.897,15v8.281C332.038,71.565,325.368,78.281,317.141,78.281z"/>
<path style="fill:#45DB77;" d="M401,268.6v42.8V482c0,16.569-13.339,30-29.795,30h-230.41C124.339,512,111,498.569,111,482V311.4
	v-42.8c5.374-5.313,12.729-8.6,20.856-8.6c10.366,0,19.491,5.333,24.829,13.419c5.337-8.087,14.463-13.419,24.829-13.419
	s19.491,5.333,24.829,13.419C211.68,265.333,220.805,260,231.171,260c10.366,0,19.491,5.333,24.829,13.419
	c5.337-8.087,14.463-13.419,24.829-13.419s19.491,5.333,24.829,13.419C310.995,265.333,320.12,260,330.486,260
	s19.491,5.333,24.829,13.419c5.337-8.087,14.463-13.419,24.829-13.419C388.271,260,395.626,263.287,401,268.6z"/>
<path style="fill:#36BF6B;" d="M143.443,490.667c0,8.431,2.756,15.797,7.3,21.333h-9.948C124.339,512,111,498.569,111,482V311.4
	v-42.8c5.374-5.313,12.729-8.6,20.856-8.6c4.113,0,8.024,0.851,11.587,2.368L143.443,490.667L143.443,490.667z M274.87,440
	c-8.227,0-14.897,6.716-14.897,15s6.67,15,14.897,15s14.897-6.716,14.897-15S283.097,440,274.87,440z M334.459,360
	c-13.713,0-24.829,11.193-24.829,25s11.116,25,24.829,25s24.829-11.193,24.829-25S348.171,360,334.459,360z"/>
<path style="fill:#FF4040;" d="M329.298,288.715L329.298,288.715c-15.113,21.891-34.39,40.545-56.715,54.88l-12.478,8.012
	c-2.504,1.608-5.707,1.608-8.211,0l-12.478-8.012c-22.325-14.335-41.602-32.989-56.715-54.88l0,0
	c-11.7-17.671-9.386-41.201,5.529-56.219l0,0c16.547-16.662,43.376-16.662,59.923,0l2.447,2.464c2.982,3.003,7.817,3.003,10.799,0
	l2.447-2.464c16.547-16.662,43.376-16.662,59.923,0l0,0C338.685,247.514,340.999,271.044,329.298,288.715z"/>
<path style="fill:#C23C3C;" d="M182.702,288.715c-5.649-8.531-8.021-18.428-7.296-28.073c1.973-0.414,4.013-0.642,6.108-0.642
	c10.366,0,19.492,5.333,24.829,13.419C211.68,265.333,220.805,260,231.171,260s19.492,5.333,24.829,13.419
	c5.337-8.087,14.463-13.419,24.829-13.419s19.492,5.333,24.829,13.419c5.337-8.087,14.463-13.419,24.829-13.419
	c2.095,0,4.136,0.228,6.108,0.642c0.725,9.645-1.648,19.542-7.296,28.073l0,0c-15.113,21.891-34.39,40.545-56.715,54.88
	l-12.478,8.012c-2.504,1.608-5.707,1.608-8.211,0l-12.478-8.012C217.092,329.26,197.814,310.606,182.702,288.715L182.702,288.715z"
	/>
<g>
</g>
<g>
</g>
<g>
</g>
<g>
</g>
<g>
</g>
<g>
</g>
<g>
</g>
<g>
</g>
<g>
</g>
<g>
</g>
<g>
</g>
<g>
</g>
<g>
</g>
<g>
</g>
<g>
</g>
</svg>
